<svg id="Слой_1" data-name="Слой 1" xmlns="http://www.w3.org/2000/svg" xmlns:xlink="http://www.w3.org/1999/xlink" viewBox="0 0 602.26 526.11"><defs><style>.cls-1{fill:url(#Безымянный_градиент_35);}.cls-2{fill:url(#Безымянный_градиент_35-2);}.cls-3{fill:url(#Безымянный_градиент_35-3);}.cls-4{fill:url(#Безымянный_градиент_35-4);}.cls-5{fill:url(#Безымянный_градиент_35-5);}.cls-6{fill:url(#Безымянный_градиент_35-6);}.cls-7{fill:url(#Безымянный_градиент_35-7);}.cls-8{fill:url(#Безымянный_градиент_35-8);}.cls-9{fill:url(#Безымянный_градиент_35-9);}</style><linearGradient id="Безымянный_градиент_35" x1="7.47" y1="300.58" x2="452.34" y2="868.24" gradientUnits="userSpaceOnUse"><stop offset="0" stop-color="#67c2e2"/><stop offset="1" stop-color="#007a83"/></linearGradient><linearGradient id="Безымянный_градиент_35-2" x1="-137.64" y1="129.27" x2="307.23" y2="696.93" xlink:href="#Безымянный_градиент_35"/><linearGradient id="Безымянный_градиент_35-3" x1="117.1" y1="214.66" x2="561.97" y2="782.32" xlink:href="#Безымянный_градиент_35"/><linearGradient id="Безымянный_градиент_35-4" x1="176.74" y1="167.92" x2="621.61" y2="735.58" xlink:href="#Безымянный_градиент_35"/><linearGradient id="Безымянный_градиент_35-5" x1="230.67" y1="125.66" x2="675.54" y2="693.32" xlink:href="#Безымянный_градиент_35"/><linearGradient id="Безымянный_градиент_35-6" x1="271.48" y1="93.67" x2="716.35" y2="661.33" xlink:href="#Безымянный_градиент_35"/><linearGradient id="Безымянный_градиент_35-7" x1="340.84" y1="39.32" x2="785.71" y2="606.98" xlink:href="#Безымянный_градиент_35"/><linearGradient id="Безымянный_градиент_35-8" x1="320.58" y1="53.76" x2="766.42" y2="622.66" xlink:href="#Безымянный_градиент_35"/><linearGradient id="Безымянный_градиент_35-9" x1="-425.28" y1="124.83" x2="-425.28" y2="124.83" xlink:href="#Безымянный_градиент_35"/></defs><title>evsorpe 1</title><path class="cls-1" d="M265,579.65q-9.4-9.62-24.55-9.62a34.56,34.56,0,0,0-13.44,2.43,32.11,32.11,0,0,0-9,5.31q-8.74,7.52-8.74,20.13a28.86,28.86,0,0,0,3.43,13.82,28,28,0,0,0,9.51,10.4,35,35,0,0,0,19.91,5.75,37.94,37.94,0,0,0,20.35-5.53,39.18,39.18,0,0,0,10.95-10.84l-5.75-4.09q-8.41,14-24.77,14a28.52,28.52,0,0,1-17.92-5.7q-7.41-5.69-8.07-15.87h56.51Q272.89,587.51,265,579.65Zm-47.88,14A22,22,0,0,1,223.79,582q6.08-5.75,16.15-5.75a28,28,0,0,1,15.37,4.09,20.36,20.36,0,0,1,9.29,13.38Z" transform="translate(-209.31 -121)"/><polygon class="cls-2" points="121.98 497.36 99.2 450.8 90.9 450.8 118.55 505.43 125.3 505.43 152.94 450.8 144.65 450.8 121.98 497.36"/><path class="cls-3" d="M441.54,597.79a19.77,19.77,0,0,0-3.21-1.22,33.22,33.22,0,0,0-3.43-.83q-1.55-.27-4.64-.55t-4.7-.39q-1.6-.11-6-.33l-6.36-.33A74.71,74.71,0,0,1,402.61,593a6.55,6.55,0,0,1-3.65-2.38,6.22,6.22,0,0,1-1.44-3.93,7.34,7.34,0,0,1,2.16-5.31,12.08,12.08,0,0,1,5.64-3.15,44.32,44.32,0,0,1,6.36-1.27,51.18,51.18,0,0,1,5.86-.33,58,58,0,0,1,11.28,1.16q5.86,1.16,8.85,3.7a14.46,14.46,0,0,1,2.32,3.21l8.07-1.66q-5.42-12.83-30.08-12.83a58.41,58.41,0,0,0-14,1.49,20.93,20.93,0,0,0-10,5.47,13.78,13.78,0,0,0-4,10.17,13.47,13.47,0,0,0,1,5.25,9.89,9.89,0,0,0,2.6,3.76,24.61,24.61,0,0,0,2.82,2.16,12.34,12.34,0,0,0,2.43,1.22,21.55,21.55,0,0,0,5,1.16q3,.39,5.81.55t8,.39q5.25.22,9.12.44,15,1,15,7.85,0,5.31-6.14,8.13t-15.43,2.82q-10.28,0-16.92-2.65-6.08-2.65-7.85-7.3l-8,1.77q4.87,14.82,33,14.82a52,52,0,0,0,12.88-1.44,27,27,0,0,0,8.46-3.43,18.2,18.2,0,0,0,4.7-4.64,14.29,14.29,0,0,0,2.27-4.53,16,16,0,0,0,.44-3.65Q449.28,601.66,441.54,597.79Z" transform="translate(-209.31 -121)"/><path class="cls-4" d="M538.75,577.44q-9-7.41-23.44-7.41-11.28,0-19,3.87a32.5,32.5,0,0,0-4.76,2.93,36.21,36.21,0,0,0-5.09,4.76,23.43,23.43,0,0,0-4.48,7.57,27.92,27.92,0,0,0-1.71,10A27,27,0,0,0,485,614.71q6.86,10,20.79,12.5a45.34,45.34,0,0,0,8.63.77q11.39,0,18.8-4.09a32.15,32.15,0,0,0,11.17-9.51,25.35,25.35,0,0,0,4.53-14.82,34.13,34.13,0,0,0-2.16-11.06A25.14,25.14,0,0,0,538.75,577.44Zm-3.1,36.05q-7.3,8.29-21.34,8.29a34,34,0,0,1-12.05-2.16,20.72,20.72,0,0,1-9.29-6.69,21.82,21.82,0,0,1-4.42-13.71q0-12.27,9.51-18.58a29.73,29.73,0,0,1,16.7-4.64q10.95,0,18.47,6.19t7.52,16.92A21.17,21.17,0,0,1,535.65,613.49Z" transform="translate(-209.31 -121)"/><path class="cls-5" d="M601.51,572.47a20.48,20.48,0,0,0-10.45,8.18V571.8h-7.3v54.63h7.3V597q0-8.4,4.53-13.38a19.37,19.37,0,0,1,6.64-4.37,25.78,25.78,0,0,1,10.4-1.94,53.45,53.45,0,0,1,5.75.44v-7.63l-3.54-.11A38.81,38.81,0,0,0,601.51,572.47Z" transform="translate(-209.31 -121)"/><path class="cls-6" d="M699.87,574a36.09,36.09,0,0,0-16.37-3.71q-18,0-26.43,10.06V571.8H650v75.31h7.08V618a33.82,33.82,0,0,0,5.2,4.53,25.63,25.63,0,0,0,8.41,3.71,41.87,41.87,0,0,0,11.17,1.49q15.26,0,25-9.4a25.88,25.88,0,0,0,8-19.35,28.39,28.39,0,0,0-3.54-13.93A25.75,25.75,0,0,0,699.87,574Zm2.65,37.88Q695.67,621,681.4,621q-12.17,0-18.91-6.52-5.31-5.2-5.31-15.7,0-11.28,7-16.64t17.53-5.36q16.92,0,22.67,12.27a23.1,23.1,0,0,1,2.21,9.84A20.86,20.86,0,0,1,702.53,611.83Z" transform="translate(-209.31 -121)"/><path class="cls-7" d="M781,621.46a28.52,28.52,0,0,1-17.92-5.7q-7.41-5.69-8.07-15.87h56.51q-.55-12.38-8.4-20.24-9.4-9.62-24.55-9.62a34.57,34.57,0,0,0-13.44,2.43,32.11,32.11,0,0,0-9,5.31q-8.74,7.52-8.74,20.13a28.86,28.86,0,0,0,3.43,13.82,28,28,0,0,0,9.51,10.4,35,35,0,0,0,19.91,5.75,37.94,37.94,0,0,0,20.35-5.53,39.19,39.19,0,0,0,10.95-10.84l-5.75-4.09Q797.41,621.46,781,621.46ZM761.91,582q6.08-5.75,16.15-5.75a28,28,0,0,1,15.37,4.09,20.35,20.35,0,0,1,9.29,13.38H755.28A22,22,0,0,1,761.91,582Z" transform="translate(-209.31 -121)"/><path class="cls-8" d="M712.21,295.37a3.16,3.16,0,0,0-4.26-2.67l-.07,0a3.18,3.18,0,0,0-2.05,3.28q.66,7.34.67,14.86A163.2,163.2,0,0,1,398,385.17l245-99a7.25,7.25,0,0,0,4.19-6.21h0c0-4-3.11-6.24-6.92-4.9L388.77,363.4a162.8,162.8,0,0,1-8.65-54.4c1-88.56,73.32-160.64,161.88-161.33A163.08,163.08,0,0,1,685,230a4.23,4.23,0,0,0,5.57,1.66l.1-.05a4.28,4.28,0,0,0,1.89-5.75c-37.85-75.12-124-121.75-217.63-99.08A186.16,186.16,0,0,0,336.91,268C309.5,392,403.19,501.8,522.51,501.8c105.15,0,190.4-85.24,190.4-190.4C712.91,305.66,712.69,300.71,712.21,295.37Z" transform="translate(-209.31 -121)"/><path class="cls-9" d="M-425.28,124.83" transform="translate(-209.31 -121)"/></svg>