<svg id="Слой_1" data-name="Слой 1" xmlns="http://www.w3.org/2000/svg" xmlns:xlink="http://www.w3.org/1999/xlink" viewBox="0 0 857.06 195.4"><defs><style>.cls-1{fill:url(#Безымянный_градиент_35);}.cls-2{fill:url(#Безымянный_градиент_35-2);}.cls-3{fill:url(#Безымянный_градиент_35-3);}.cls-4{fill:url(#Безымянный_градиент_35-4);}.cls-5{fill:url(#Безымянный_градиент_35-5);}.cls-6{fill:url(#Безымянный_градиент_35-6);}.cls-7{fill:url(#Безымянный_градиент_35-7);}.cls-8{fill:url(#Безымянный_градиент_35-8);}.cls-9{fill:url(#Безымянный_градиент_35-9);}</style><linearGradient id="Безымянный_градиент_35" x1="102.47" y1="-164.99" x2="547.34" y2="402.67" gradientUnits="userSpaceOnUse"><stop offset="0" stop-color="#67c2e2"/><stop offset="1" stop-color="#007a83"/></linearGradient><linearGradient id="Безымянный_градиент_35-2" x1="117.16" y1="-242.61" x2="562.02" y2="325.06" xlink:href="#Безымянный_градиент_35"/><linearGradient id="Безымянный_градиент_35-3" x1="212.1" y1="-250.91" x2="656.97" y2="316.75" xlink:href="#Безымянный_градиент_35"/><linearGradient id="Безымянный_градиент_35-4" x1="271.74" y1="-297.65" x2="716.61" y2="270.01" xlink:href="#Безымянный_градиент_35"/><linearGradient id="Безымянный_градиент_35-5" x1="325.67" y1="-339.92" x2="770.54" y2="227.75" xlink:href="#Безымянный_градиент_35"/><linearGradient id="Безымянный_градиент_35-6" x1="366.48" y1="-371.9" x2="811.35" y2="195.76" xlink:href="#Безымянный_градиент_35"/><linearGradient id="Безымянный_градиент_35-7" x1="435.84" y1="-426.25" x2="880.71" y2="141.41" xlink:href="#Безымянный_градиент_35"/><linearGradient id="Безымянный_градиент_35-8" x1="43.59" y1="-7.2" x2="272.37" y2="284.72" xlink:href="#Безымянный_градиент_35"/><linearGradient id="Безымянный_градиент_35-9" x1="-425.28" y1="124.83" x2="-425.28" y2="124.83" xlink:href="#Безымянный_градиент_35"/></defs><title>evsorpe ¦¬TБTЕ¦-¦+¦-¦¬¦¦_new</title><path class="cls-1" d="M360,114.08q-9.4-9.62-24.55-9.62a34.56,34.56,0,0,0-13.44,2.43,32.11,32.11,0,0,0-9,5.31q-8.74,7.52-8.74,20.13a28.86,28.86,0,0,0,3.43,13.82,28,28,0,0,0,9.51,10.4,35,35,0,0,0,19.91,5.75,37.94,37.94,0,0,0,20.35-5.53,39.18,39.18,0,0,0,10.95-10.84l-5.75-4.09q-8.41,14-24.77,14a28.52,28.52,0,0,1-17.92-5.7q-7.41-5.69-8.07-15.87h56.51Q367.89,121.94,360,114.08Zm-47.88,14a22,22,0,0,1,6.64-11.72q6.08-5.75,16.15-5.75a28,28,0,0,1,15.37,4.09,20.36,20.36,0,0,1,9.29,13.38Z" transform="translate(-49.51 -27.3)"/><polygon class="cls-2" points="376.78 125.49 354 78.93 345.7 78.93 373.35 133.56 380.09 133.56 407.74 78.93 399.45 78.93 376.78 125.49"/><path class="cls-3" d="M536.54,132.22a19.77,19.77,0,0,0-3.21-1.22,33.22,33.22,0,0,0-3.43-.83q-1.55-.27-4.64-.55t-4.7-.39q-1.6-.11-6-.33l-6.36-.33a74.71,74.71,0,0,1-10.62-1.11,6.55,6.55,0,0,1-3.65-2.38,6.22,6.22,0,0,1-1.44-3.93,7.34,7.34,0,0,1,2.16-5.31,12.08,12.08,0,0,1,5.64-3.15,44.32,44.32,0,0,1,6.36-1.27,51.18,51.18,0,0,1,5.86-.33,58,58,0,0,1,11.28,1.16q5.86,1.16,8.85,3.7a14.46,14.46,0,0,1,2.32,3.21l8.07-1.66q-5.42-12.83-30.08-12.83a58.41,58.41,0,0,0-14,1.49,20.93,20.93,0,0,0-10,5.47,13.78,13.78,0,0,0-4,10.17,13.47,13.47,0,0,0,1,5.25,9.89,9.89,0,0,0,2.6,3.76,24.61,24.61,0,0,0,2.82,2.16,12.34,12.34,0,0,0,2.43,1.22,21.55,21.55,0,0,0,5,1.16q3,.39,5.81.55t8,.39q5.25.22,9.12.44,15,1,15,7.85,0,5.31-6.14,8.13t-15.43,2.82q-10.28,0-16.92-2.65-6.08-2.65-7.85-7.3l-8,1.77q4.87,14.82,33,14.82a52,52,0,0,0,12.88-1.44,27,27,0,0,0,8.46-3.43,18.2,18.2,0,0,0,4.7-4.64,14.29,14.29,0,0,0,2.27-4.53,16,16,0,0,0,.44-3.65Q544.28,136.09,536.54,132.22Z" transform="translate(-49.51 -27.3)"/><path class="cls-4" d="M633.75,111.87q-9-7.41-23.44-7.41-11.28,0-19,3.87a32.5,32.5,0,0,0-4.76,2.93,36.21,36.21,0,0,0-5.09,4.76,23.43,23.43,0,0,0-4.48,7.57,27.92,27.92,0,0,0-1.71,10A27,27,0,0,0,580,149.14q6.86,10,20.79,12.5a45.34,45.34,0,0,0,8.63.77q11.39,0,18.8-4.09a32.15,32.15,0,0,0,11.17-9.51A25.35,25.35,0,0,0,643.92,134a34.13,34.13,0,0,0-2.16-11.06A25.14,25.14,0,0,0,633.75,111.87Zm-3.1,36.05q-7.3,8.29-21.34,8.29a34,34,0,0,1-12.05-2.16,20.72,20.72,0,0,1-9.29-6.69,21.82,21.82,0,0,1-4.42-13.71q0-12.27,9.51-18.58a29.73,29.73,0,0,1,16.7-4.64q10.95,0,18.47,6.19t7.52,16.92A21.17,21.17,0,0,1,630.65,147.92Z" transform="translate(-49.51 -27.3)"/><path class="cls-5" d="M696.51,106.89a20.48,20.48,0,0,0-10.45,8.18v-8.85h-7.3v54.63h7.3V131.44q0-8.4,4.53-13.38a19.37,19.37,0,0,1,6.64-4.37,25.78,25.78,0,0,1,10.4-1.94,53.45,53.45,0,0,1,5.75.44v-7.63l-3.54-.11A38.81,38.81,0,0,0,696.51,106.89Z" transform="translate(-49.51 -27.3)"/><path class="cls-6" d="M794.87,108.39a36.09,36.09,0,0,0-16.37-3.71q-18,0-26.43,10.06v-8.51H745v75.31h7.08V152.45a33.82,33.82,0,0,0,5.2,4.53,25.63,25.63,0,0,0,8.41,3.71,41.87,41.87,0,0,0,11.17,1.49q15.26,0,25-9.4a25.88,25.88,0,0,0,8-19.35,28.39,28.39,0,0,0-3.54-13.93A25.75,25.75,0,0,0,794.87,108.39Zm2.65,37.88q-6.86,9.18-21.12,9.18-12.17,0-18.91-6.52-5.31-5.2-5.31-15.7,0-11.28,7-16.64t17.53-5.36q16.92,0,22.67,12.27a23.1,23.1,0,0,1,2.21,9.84A20.86,20.86,0,0,1,797.53,146.26Z" transform="translate(-49.51 -27.3)"/><path class="cls-7" d="M876,155.88a28.52,28.52,0,0,1-17.92-5.7q-7.41-5.69-8.07-15.87h56.51q-.55-12.38-8.4-20.24-9.4-9.62-24.55-9.62a34.57,34.57,0,0,0-13.44,2.43,32.11,32.11,0,0,0-9,5.31q-8.74,7.52-8.74,20.13a28.86,28.86,0,0,0,3.43,13.82,28,28,0,0,0,9.51,10.4,35,35,0,0,0,19.91,5.75,37.94,37.94,0,0,0,20.35-5.53,39.19,39.19,0,0,0,10.95-10.84l-5.75-4.09Q892.41,155.88,876,155.88ZM856.91,116.4q6.08-5.75,16.15-5.75a28,28,0,0,1,15.37,4.09,20.35,20.35,0,0,1,9.29,13.38H850.28A22,22,0,0,1,856.91,116.4Z" transform="translate(-49.51 -27.3)"/><path class="cls-8" d="M244.55,116.78a1.62,1.62,0,0,0-2.18-1.37h0a1.63,1.63,0,0,0-1.05,1.68q.34,3.77.34,7.62a83.74,83.74,0,0,1-158.3,38.13L209,112.07a3.72,3.72,0,0,0,2.15-3.19h0a2.5,2.5,0,0,0-3.55-2.52l-129,45.32a83.75,83.75,0,0,1,152-68.47,2.17,2.17,0,0,0,2.86.85l.05,0a2.2,2.2,0,0,0,1-3c-19.42-38.55-63.61-62.47-111.67-50.84A95.53,95.53,0,0,0,52,102.72c-14.06,63.66,34,120,95.24,120a97.7,97.7,0,0,0,97.7-97.7C244.91,122.05,244.8,119.52,244.55,116.78Z" transform="translate(-49.51 -27.3)"/><path class="cls-9" d="M-425.28,124.83" transform="translate(-49.51 -27.3)"/></svg>